<svg width="47" height="19" viewBox="0 0 47 19" fill="none" xmlns="http://www.w3.org/2000/svg">
<path d="M46.8831 12.9769L46.4161 15.4049C45.9844 17.675 43.8491 19.202 41.4318 18.968L36.6237 18.5058C34.5266 18.3039 32.9728 16.7798 32.3149 14.6151C31.422 11.6751 30.8464 9.49571 30.8464 9.49571C28.5272 8.5058 26.0265 8.00767 23.5035 8.03304C20.5253 8.03304 18.3988 8.66199 16.1607 9.49571C16.1607 9.49571 15.5615 11.678 14.6921 14.6151C14.1106 16.575 13.2118 18.2922 11.1587 18.497L6.3771 18.9768C5.2127 19.0881 4.04528 18.7971 3.07083 18.1526C2.09638 17.508 1.37424 16.5492 1.02564 15.4371L0.297227 13.012C-0.0637873 11.8526 -0.0965938 10.6164 0.202419 9.43961C0.501431 8.26281 1.12067 7.19101 1.99195 6.34219C6.17737 2.29351 13.7111 0.0117464 23.48 4.50138e-05C33.2666 -0.0116564 39.9104 2.25841 44.5158 6.30709C46.4543 8.00964 47.3413 10.5722 46.8802 12.9769H46.8831Z" fill="white"/>
</svg>
