<svg width="71" height="89" viewBox="0 0 71 89" fill="none" xmlns="http://www.w3.org/2000/svg">
<path d="M22.1875 10.0244C22.1875 7.56727 20.2007 5.57536 17.75 5.57536C15.2993 5.57536 13.3125 7.56727 13.3125 10.0244V40.0471C13.3125 41.2755 12.3191 42.2717 11.0938 42.2717C9.86838 42.2717 8.875 41.2755 8.875 40.0471V17.796C8.875 15.3389 6.88824 13.347 4.4375 13.347C1.98676 13.347 0 15.3389 0 17.796V56.7549C0 66.4511 5.18486 76.8173 8.49355 82.5098C10.9614 86.7559 15.505 89 20.131 89H29.7517C35.2151 89 40.2095 85.9048 42.6524 81.0051L43.2439 79.8177C45.1107 76.073 47.4386 72.5774 50.1735 69.4137L59.9888 58.0594L69.7153 50.4747C70.5256 49.8425 71 48.8704 71 47.8409C71 45.6836 69.8502 44.0819 68.3748 43.1263C67.0608 42.2752 65.4904 41.9113 64.1059 41.7467C61.2828 41.4108 57.849 41.7538 54.8346 42.3406C52.556 42.7842 50.5116 43.6486 48.8125 44.5851V10.0244C48.8125 7.56727 46.8258 5.57536 44.375 5.57536C41.9242 5.57536 39.9375 7.56727 39.9375 10.0244V37.8307C39.9375 39.059 38.9439 40.0552 37.7188 40.0552C36.4936 40.0552 35.5 39.059 35.5 37.8307V4.44901C35.5 1.99186 33.5133 0 31.0625 0C28.6117 0 26.625 1.99186 26.625 4.44901V37.8307C26.625 39.059 25.6314 40.0552 24.4062 40.0552C23.1811 40.0552 22.1875 39.059 22.1875 37.8307V10.0244Z" fill="#CBD5E1"/>
</svg>
